<svg xmlns="http://www.w3.org/2000/svg" viewBox="0 0 187.3 135.31"><defs><style>.a{fill-rule:evenodd;}</style></defs><title>flioh</title><path class="a" d="M100.32,73.68A23.69,23.69,0,0,0,98.24,84c0,3.19,1,5.46,3.67,5.49,4.18,0,7.8-8.94,9-16.9a25.5,25.5,0,0,1-7.88,1.28,20.47,20.47,0,0,1-2.73-.17h0ZM7,67.06C-5.21,59.8-1.52,36.87,18.69,35.65c6.26-.37,17.38-0.12,28.31-0.88,11.61-.83,22.82-2.76,28.14-7.83C77,25.09,79.35,22.61,82,24.18s2.3,4.72.31,7C73.92,41,57.61,43,42,43.61a214,214,0,0,0-8.25,28.71c1.68-.34,5.27-1.07,7.15-1.38,5.48-.89,5.42,5.95-0.63,7.11-2.58.5-6.41,1.38-8.12,1.72-2.76,13.66-4.58,27.35-4.3,36.37,0.2,7.26-9.11,8.25-9.93-.25-0.71-7.31.83-19.95,3.3-33-1.2.43-2.5,1-4.07,1.62-3.73,1.56-5.66-4.21-2-6.49a53.45,53.45,0,0,1,7.71-2.9C25.4,63,28.65,51.27,31.55,43.84,27,43.9,22.67,44,18.83,44.18c-7.31.43-11,5.44-10.7,10a8.06,8.06,0,0,0,4,6.4c6.4,3.76.94,10.1-5.12,6.49H7ZM142.43,97.79c5.15-.6,5.69,4.92,1.34,5.83-13.4,2.82-75.8,23.67-90.65,30.82-4,1.94-6.54.34-7.54-1.85s-0.51-4.89,2.5-6.57c6.66-3.73,79.93-26.58,94.35-28.23h0ZM178.48,5.37c1.31-4.3,2.82-6,6-5.15s3.24,3.5,2.11,8.14c-4,16.36-8.39,33.55-9.45,50.25-0.28,4.72-1.57,5.81-3.93,6s-4.18-1.17-4.15-5.72c0.06-7.77,3.76-35.17,9.39-53.49h0ZM176,75c0-6.57-8.82-5-8.82.82,0,6.15,8.82,4.84,8.82-.82h0ZM55.39,51.58c2-6.69,10.61-3.9,9.11,1.65-3.93,12-8.22,30-9,42.77-0.2,3.33.17,6.57,2.45,6.57,2.76,0,7.26-6.23,9.79-10.13,0-.48,0-1,0-1.51a69.62,69.62,0,0,1,3.84-21c1.37-4,3.59-4.69,5.55-4.69a4,4,0,0,1,4,5.06c-5.66,18.35-5.32,25.84-2.22,25.84,2.25,0,6.86-4.61,10.33-11.1A45.83,45.83,0,0,1,92.32,69a8.73,8.73,0,0,1-1.17-4.47c0-7.8,7.8-13.17,15.05-13.17,6.63,0,10,5,11.52,10.07,5.26-4,10.19-9.65,14.46-15.45,2.62-11.92,5.95-24.07,8.42-30.68s11-3.79,9.11,1.65c-2.59,7.29-6.14,20.89-8.71,33.29,3.36-4.3,7.43-7.57,10.84-7.51,13.6,0.2,6,29.82,3.33,37.16-2,6.69-10.61,3.9-9.08-1.65,5.66-18.38,5.72-26.78,2.62-26.81-2.25,0-9.25,8.65-11.1,15.56-0.8,5.35-1.42,10.67-1.74,15.94-0.31,4.75-2.16,5.81-4.5,6s-4.75-1.2-4.72-5.75c0-4,2.38-21.56,3.38-25.35a42.34,42.34,0,0,1-11.32,11c-0.2,13.06-7.14,29.62-19.06,29.74A9.57,9.57,0,0,1,90.79,93c-3.07,8-8.71,11.89-13.37,11.87a8.43,8.43,0,0,1-8-5c-3.44,7.06-8.94,11.53-13.77,11.53-6.17,0-9.53-4.5-9.65-13.29-0.14-13,5.18-34.32,9.39-46.55h0Zm25.3,7.88A5.7,5.7,0,0,0,86,54.82a3.78,3.78,0,0,0-3.93-4.64,5.47,5.47,0,0,0-5.35,4.64,3.94,3.94,0,0,0,4,4.64h0Zm30.53,5.89c-0.48-3.56-2.33-7.09-5.8-7.09-2.93,0-6.12,2.36-6.12,5.44,0,1.85,1.34,3.47,4,3.47a19.22,19.22,0,0,0,7.91-1.82h0Z"/></svg>