<?xml version="1.0" standalone="no"?>
<!DOCTYPE svg PUBLIC "-//W3C//DTD SVG 20010904//EN"
 "http://www.w3.org/TR/2001/REC-SVG-20010904/DTD/svg10.dtd">
<svg version="1.0" xmlns="http://www.w3.org/2000/svg"
 width="500.000000pt" height="500.000000pt" viewBox="0 0 500.000000 500.000000"
 preserveAspectRatio="xMidYMid meet">
<metadata>
Created by potrace 1.11, written by Peter Selinger 2001-2013
</metadata>
<g transform="translate(0.000000,500.000000) scale(0.100000,-0.100000)"
fill="#000000" stroke="none">
<path d="M0 2500 l0 -2500 2500 0 2500 0 0 2500 0 2500 -2500 0 -2500 0 0
-2500z m2020 397 c0 -1150 -1 -1167 -95 -1362 -72 -148 -175 -255 -310 -320
-112 -54 -172 -66 -356 -72 -303 -10 -437 39 -641 236 -38 35 -68 70 -68 77 0
12 369 434 380 434 3 0 18 -22 33 -50 62 -109 118 -150 211 -150 66 0 102 12
139 48 39 37 63 86 76 157 7 40 11 367 11 1017 l0 958 310 0 310 0 0 -973z
m1820 713 l0 -260 -430 0 -430 0 0 -260 0 -260 400 0 400 0 0 -260 0 -260
-400 0 -400 0 0 -555 0 -555 -310 0 -310 0 0 1335 0 1335 740 0 740 0 0 -260z
m393 -1770 c78 -29 149 -96 189 -178 30 -61 33 -74 33 -162 0 -81 -4 -103 -26
-150 -37 -77 -87 -131 -161 -171 -61 -33 -67 -34 -173 -34 -95 0 -117 3 -157
23 -74 37 -134 96 -170 170 -31 62 -33 74 -33 167 0 90 3 105 28 155 90 176
283 250 470 180z"/>
</g>
</svg>
