<?xml version="1.0" standalone="no"?>
<!DOCTYPE svg PUBLIC "-//W3C//DTD SVG 20010904//EN"
 "http://www.w3.org/TR/2001/REC-SVG-20010904/DTD/svg10.dtd">
<svg version="1.0" xmlns="http://www.w3.org/2000/svg"
 width="512.000000pt" height="512.000000pt" viewBox="0 0 512.000000 512.000000"
 preserveAspectRatio="xMidYMid meet">
<metadata>
Created by potrace 1.11, written by Peter Selinger 2001-2013
</metadata>
<g transform="translate(0.000000,512.000000) scale(0.100000,-0.100000)"
fill="#000000" stroke="none">
<path d="M0 2560 l0 -2560 2560 0 2560 0 0 2560 0 2560 -2560 0 -2560 0 0
-2560z m2147 348 c-3 -1023 -3 -1034 -25 -1123 -41 -169 -134 -324 -253 -421
-132 -108 -246 -144 -480 -151 -304 -10 -437 39 -641 236 -38 35 -68 70 -68
77 0 12 369 434 380 434 3 0 16 -19 29 -43 41 -72 83 -119 125 -138 46 -21
130 -25 173 -8 45 16 91 68 116 128 l22 56 3 993 3 992 310 0 310 0 -4 -1032z
m1743 772 l0 -260 -430 0 -430 0 0 -260 0 -260 400 0 400 0 0 -260 0 -260
-400 0 -400 0 0 -555 0 -555 -310 0 -310 0 0 1335 0 1335 740 0 740 0 0 -260z
m326 -1774 c75 -34 139 -97 177 -175 29 -60 32 -74 32 -161 0 -88 -3 -101 -33
-162 -39 -79 -92 -130 -178 -170 -60 -28 -70 -30 -161 -26 -85 3 -106 7 -156
32 -68 35 -124 93 -164 168 -26 48 -28 62 -28 158 0 96 2 110 29 163 49 96
150 176 249 197 66 14 175 3 233 -24z"/>
</g>
</svg>
