<?xml version="1.0" encoding="UTF-8"?>
<svg width="92px" height="45px" viewBox="0 0 92 45" version="1.1" xmlns="http://www.w3.org/2000/svg" xmlns:xlink="http://www.w3.org/1999/xlink">
    <!-- Generator: Sketch 49 (51002) - http://www.bohemiancoding.com/sketch -->
    <title>logo-large-black@2x</title>
    <desc>Created with Sketch.</desc>
    <defs>
        <polygon id="path-1" points="0 0 94 0 94 48 0 48"></polygon>
    </defs>
    <g id="Page-1" stroke="none" stroke-width="1" fill="none" fill-rule="evenodd">
        <g id="logo-large-black" transform="translate(-1.000000, -2.000000)">
            <mask id="mask-2" fill="white">
                <use xlink:href="#path-1"></use>
            </mask>
            <g id="Clip-2"></g>
            <path d="M93.022,15.182 L90.153,15.182 L83.472,32.62 L76.614,15.182 L73.611,15.182 L82.039,35.984 L80.156,40.217 C79.527,41.831 78.675,43.669 76.703,43.669 C75.896,43.669 75.044,43.4 74.282,43.175 L74.013,45.687 C74.865,45.911 75.762,46.091 76.658,46.091 C79.618,46.091 81.321,44.386 82.352,41.742 L93.022,15.182 Z M59.904,35.894 L62.595,35.894 L62.595,24.598 C62.595,20.561 64.703,17.333 69.365,17.333 C69.633,17.333 69.992,17.378 70.396,17.512 L70.71,14.869 C70.171,14.733 69.678,14.644 69.14,14.644 C62.448,14.644 59.904,19.365 59.904,23.465 L59.904,35.894 Z M51.952,35.894 L54.642,35.894 L54.642,2 L51.952,2 L51.952,35.894 Z M42.987,35.894 L45.676,35.894 L45.676,2 L42.987,2 L42.987,35.894 Z M21.826,23.789 C21.826,22.714 23.486,17.065 29.358,17.065 C33.348,17.065 36.532,20.115 36.532,23.789 L21.826,23.789 Z M36.621,30.335 C35.276,32.577 32.407,34.011 29.672,34.011 C23.395,34.011 21.826,28.453 21.826,26.21 L39.221,26.21 L39.221,24.327 C39.221,19.53 35.859,14.644 29.493,14.644 C23.441,14.644 19.136,19.307 19.136,25.494 C19.136,31.905 23.305,36.432 29.626,36.432 C33.304,36.432 36.487,35.132 38.594,31.994 L36.621,30.335 Z M3.375,30.604 C4.496,32.8 6.962,34.011 9.382,34.011 C11.713,34.011 14.135,32.577 14.135,30.2 C14.135,24.508 1.852,28.497 1.852,20.606 C1.852,16.573 5.527,14.644 8.935,14.644 C12.297,14.644 14.897,15.899 16.242,18.543 L13.821,19.979 C12.791,18.096 11.356,17.065 8.935,17.065 C7.006,17.065 4.541,18.231 4.541,20.381 C4.541,25.986 16.826,21.637 16.826,30.023 C16.826,34.282 13.283,36.432 9.338,36.432 C5.796,36.432 2.614,35.087 1,32.219 L3.375,30.604 Z" id="Fill-1" fill="#ffffff" mask="url(#mask-2)"></path>
        </g>
    </g>
</svg>